<?xml version="1.0" encoding="UTF-8" standalone="no"?>
<svg width="1200" height="800" viewBox="0 0 1200 800" xmlns="http://www.w3.org/2000/svg">
  <defs>
    <linearGradient id="grad1" x1="0%" y1="0%" x2="100%" y2="100%">
      <stop offset="0%" style="stop-color:#1a0b2e;stop-opacity:1" />
      <stop offset="100%" style="stop-color:#000000;stop-opacity:1" />
    </linearGradient>
  </defs>
  <rect width="100%" height="100%" fill="url(#grad1)"/>
  
  <!-- Abstract lines -->
  <g stroke="#5000ca" stroke-width="1" opacity="0.3">
    <!-- Horizontal lines -->
    <path d="M0,100 L1200,150" />
    <path d="M0,200 L1200,180" />
    <path d="M0,300 L1200,350" />
    <path d="M0,400 L1200,380" />
    <path d="M0,500 L1200,550" />
    <path d="M0,600 L1200,580" />
    <path d="M0,700 L1200,750" />
    
    <!-- Vertical lines -->
    <path d="M100,0 L150,800" />
    <path d="M200,0 L180,800" />
    <path d="M300,0 L350,800" />
    <path d="M400,0 L380,800" />
    <path d="M500,0 L550,800" />
    <path d="M600,0 L580,800" />
    <path d="M700,0 L750,800" />
    <path d="M800,0 L780,800" />
    <path d="M900,0 L950,800" />
    <path d="M1000,0 L980,800" />
    <path d="M1100,0 L1150,800" />
  </g>
  
  <!-- Glowing dots at intersections -->
  <g fill="#a855f7" opacity="0.5">
    <circle cx="100" cy="100" r="3" />
    <circle cx="300" cy="200" r="3" />
    <circle cx="500" cy="300" r="3" />
    <circle cx="700" cy="400" r="3" />
    <circle cx="900" cy="500" r="3" />
    <circle cx="1100" cy="600" r="3" />
    <circle cx="200" cy="150" r="3" />
    <circle cx="400" cy="250" r="3" />
    <circle cx="600" cy="350" r="3" />
    <circle cx="800" cy="450" r="3" />
    <circle cx="1000" cy="550" r="3" />
    <circle cx="150" cy="650" r="3" />
    <circle cx="350" cy="750" r="3" />
  </g>
</svg>
